<?xml version="1.0" encoding="UTF-8"?>
<svg xmlns="http://www.w3.org/2000/svg" xmlns:xlink="http://www.w3.org/1999/xlink" width="32px" height="31px" viewBox="0 0 31 31" version="1.1">
<g id="surface1">
<path style=" stroke:none;fill-rule:nonzero;fill:rgb(0%,0%,0%);fill-opacity:1;" d="M 16.074219 5.589844 C 15.800781 5.65625 15.351562 5.898438 15.085938 6.125 C 13.714844 7.273438 13.457031 9.738281 14.53125 11.378906 C 15.140625 12.3125 16.117188 12.8125 17.070312 12.683594 C 18.128906 12.535156 19.046875 11.625 19.398438 10.367188 C 19.539062 9.878906 19.582031 9 19.5 8.46875 C 19.289062 7.125 18.484375 6.035156 17.425781 5.65625 C 17.074219 5.53125 16.449219 5.5 16.074219 5.589844 Z M 16.074219 5.589844 "/>
<path style=" stroke:none;fill-rule:nonzero;fill:rgb(0%,0%,0%);fill-opacity:1;" d="M 8.933594 8.363281 C 8.078125 8.53125 7.339844 9.253906 7.101562 10.171875 C 6.992188 10.574219 7.007812 11.378906 7.125 11.855469 C 7.601562 13.777344 9.5625 15.242188 11.277344 14.945312 C 12.257812 14.78125 13.03125 14.015625 13.242188 12.992188 C 13.59375 11.28125 12.460938 9.28125 10.738281 8.570312 C 10.140625 8.324219 9.5 8.253906 8.933594 8.363281 Z M 8.933594 8.363281 "/>
<path style=" stroke:none;fill-rule:nonzero;fill:rgb(0%,0%,0%);fill-opacity:1;" d="M 22.179688 9.234375 C 21.152344 9.527344 20.257812 10.425781 19.894531 11.523438 C 19.761719 11.921875 19.707031 12.789062 19.789062 13.179688 C 20.035156 14.332031 21.023438 15.03125 22.15625 14.855469 C 22.78125 14.753906 23.292969 14.472656 23.804688 13.945312 C 24.269531 13.46875 24.492188 13.113281 24.671875 12.597656 C 24.996094 11.640625 24.925781 10.738281 24.460938 10.03125 C 24.253906 9.710938 24.011719 9.507812 23.621094 9.324219 C 23.265625 9.160156 22.601562 9.113281 22.179688 9.234375 Z M 22.179688 9.234375 "/>
<path style=" stroke:none;fill-rule:nonzero;fill:rgb(0%,0%,0%);fill-opacity:1;" d="M 15.6875 14.570312 C 15.164062 14.667969 14.753906 14.816406 14.128906 15.128906 C 13.476562 15.449219 13.066406 15.761719 12.566406 16.289062 C 11.769531 17.140625 11.269531 18.203125 11.027344 19.578125 C 10.941406 20.042969 10.921875 20.363281 10.921875 21.261719 C 10.921875 21.929688 10.945312 22.519531 10.988281 22.746094 C 11.15625 23.777344 11.660156 24.59375 12.390625 25.03125 C 12.851562 25.304688 13.332031 25.429688 14.054688 25.453125 C 14.828125 25.480469 15.148438 25.429688 15.585938 25.207031 C 15.949219 25.019531 16.207031 24.734375 16.628906 24.050781 C 17.136719 23.214844 17.519531 22.882812 18.238281 22.667969 C 18.652344 22.539062 19.339844 22.550781 19.96875 22.691406 C 20.984375 22.921875 21.660156 22.882812 22.28125 22.566406 C 23.53125 21.925781 24.109375 20.195312 23.585938 18.664062 C 23.402344 18.132812 23.101562 17.664062 22.601562 17.125 C 21.363281 15.8125 19.46875 14.816406 17.683594 14.550781 C 17.203125 14.472656 16.144531 14.488281 15.6875 14.570312 Z M 15.6875 14.570312 "/>
<path style=" stroke:none;fill-rule:nonzero;fill:rgb(0%,0%,0%);fill-opacity:1;" d="M 6.320312 14.746094 C 4.527344 15.203125 4.207031 17.457031 5.714844 18.992188 C 6.300781 19.589844 7.113281 19.964844 7.917969 20.015625 C 9.886719 20.128906 10.882812 18.328125 9.875 16.472656 C 9.640625 16.054688 9.046875 15.433594 8.625 15.183594 C 8.070312 14.855469 7.664062 14.734375 7.050781 14.714844 C 6.753906 14.703125 6.421875 14.71875 6.320312 14.746094 Z M 6.320312 14.746094 "/>
</g>
</svg>
